<mxfile host="app.diagrams.net" modified="2024-01-17T15:18:42.415Z" agent="Mozilla/5.0 (Windows NT 10.0; Win64; x64) AppleWebKit/537.36 (KHTML, like Gecko) Chrome/120.0.0.0 Safari/537.36 Edg/120.0.0.0" etag="wYmAzx1azrkhYxGuiD8h" version="22.1.20" type="github" pages="3">
  <diagram id="f106602c-feb2-e66a-4537-3a34d633f6aa" name="Contexts">
    <mxGraphModel dx="1196" dy="742" grid="0" gridSize="10" guides="1" tooltips="1" connect="1" arrows="1" fold="1" page="1" pageScale="1" pageWidth="1169" pageHeight="827" background="none" math="0" shadow="0">
      <root>
        <mxCell id="0" />
        <mxCell id="1" parent="0" />
        <mxCell id="fvY9OJy-OO_CtmtVDPCK-91" value="Read-only Access" style="sketch=0;points=[[0,0,0],[0.25,0,0],[0.5,0,0],[0.75,0,0],[1,0,0],[1,0.25,0],[1,0.5,0],[1,0.75,0],[1,1,0],[0.75,1,0],[0.5,1,0],[0.25,1,0],[0,1,0],[0,0.75,0],[0,0.5,0],[0,0.25,0]];rounded=1;absoluteArcSize=1;arcSize=2;html=1;strokeColor=none;gradientColor=none;shadow=0;dashed=0;fontSize=12;fontColor=#9E9E9E;align=left;verticalAlign=top;spacing=10;spacingTop=-4;" parent="1" vertex="1">
          <mxGeometry x="863.75" y="213" width="200" height="160" as="geometry" />
        </mxCell>
        <mxCell id="GuzJ8BqgIlNCJu6hI-l5-1007" value="&lt;b&gt;Google Cloud Platform&lt;/b&gt;" style="fillColor=#F6F6F6;strokeColor=none;shadow=0;gradientColor=none;fontSize=14;align=left;spacing=10;fontColor=#717171;9E9E9E;verticalAlign=top;spacingTop=-4;fontStyle=0;spacingLeft=40;html=1;" parent="1" vertex="1">
          <mxGeometry x="371.25" y="214" width="420" height="313" as="geometry" />
        </mxCell>
        <mxCell id="GuzJ8BqgIlNCJu6hI-l5-1008" value="" style="shape=mxgraph.gcp2.google_cloud_platform;fillColor=#F6F6F6;strokeColor=none;shadow=0;gradientColor=none;" parent="GuzJ8BqgIlNCJu6hI-l5-1007" vertex="1">
          <mxGeometry width="23" height="20" relative="1" as="geometry">
            <mxPoint x="20" y="10" as="offset" />
          </mxGeometry>
        </mxCell>
        <mxCell id="fvY9OJy-OO_CtmtVDPCK-119" style="edgeStyle=orthogonalEdgeStyle;rounded=0;orthogonalLoop=1;jettySize=auto;html=1;exitX=0.75;exitY=0;exitDx=0;exitDy=0;entryX=0.75;entryY=1;entryDx=0;entryDy=0;fontSize=8;fontColor=#999999;startSize=4;endSize=4;strokeColor=#fbbc05;strokeWidth=2;" parent="GuzJ8BqgIlNCJu6hI-l5-1007" source="fvY9OJy-OO_CtmtVDPCK-18" target="fvY9OJy-OO_CtmtVDPCK-16" edge="1">
          <mxGeometry relative="1" as="geometry" />
        </mxCell>
        <mxCell id="fvY9OJy-OO_CtmtVDPCK-120" style="edgeStyle=orthogonalEdgeStyle;rounded=0;orthogonalLoop=1;jettySize=auto;html=1;exitX=0.25;exitY=0;exitDx=0;exitDy=0;entryX=0.25;entryY=1;entryDx=0;entryDy=0;fontSize=8;fontColor=#999999;startSize=4;endSize=4;strokeColor=#34A853;strokeWidth=2;" parent="GuzJ8BqgIlNCJu6hI-l5-1007" source="fvY9OJy-OO_CtmtVDPCK-18" target="fvY9OJy-OO_CtmtVDPCK-16" edge="1">
          <mxGeometry relative="1" as="geometry" />
        </mxCell>
        <mxCell id="fvY9OJy-OO_CtmtVDPCK-18" value="" style="strokeColor=#dddddd;shadow=1;strokeWidth=1;rounded=1;absoluteArcSize=1;arcSize=2;" parent="GuzJ8BqgIlNCJu6hI-l5-1007" vertex="1">
          <mxGeometry x="55" y="190" width="125" height="60" as="geometry" />
        </mxCell>
        <mxCell id="fvY9OJy-OO_CtmtVDPCK-19" value="Cloud&#xa;Functions" style="editableCssRules=.*;fontColor=#999999;shape=image;verticalLabelPosition=middle;labelBackgroundColor=#ffffff;verticalAlign=middle;labelPosition=right;align=left;spacingLeft=20;part=1;points=[];imageAspect=0;image=data:image/svg+xml,PHN2ZyB4bWxucz0iaHR0cDovL3d3dy53My5vcmcvMjAwMC9zdmciIHhtbG5zOnY9Imh0dHBzOi8vdmVjdGEuaW8vbmFubyIgd2lkdGg9IjIwIiBoZWlnaHQ9IjE5Ljk4OTk5OTc3MTExODE2NCIgdmlld0JveD0iMCAwIDIwIDE5Ljk4OTk5OTc3MTExODE2NCI+JiN4YTsJPHN0eWxlIHR5cGU9InRleHQvY3NzIj4mI3hhOwkuc3Qwe2ZpbGw6IzQyODVmNDt9JiN4YTsJLnN0MXtmaWxsOiM2NjlkZjY7fSYjeGE7CS5zdDJ7ZmlsbDojYWVjYmZhO30mI3hhOwk8L3N0eWxlPiYjeGE7CTxwYXRoIGNsYXNzPSJzdDEiIGQ9Ik0zIDMuOTlMMCA2LjQydjcuMTNsMyAyLjQ0eiIvPiYjeGE7CTxwYXRoIGNsYXNzPSJzdDAiIGQ9Ik0zIDMuOTlsLTMgNCAzLTJ6bS0zIDhsMyA0di0yeiIvPiYjeGE7CTxwYXRoIGNsYXNzPSJzdDIiIGQ9Ik0wIDE1Ljk5bDQgNCAyLTItNi02em0uMDEtOEw1Ljk5IDJsLTItMkwwIDMuOTl6Ii8+JiN4YTsJPHBhdGggY2xhc3M9InN0MSIgZD0iTTE3IDE2bDMtMi40MlY2LjQ0TDE3IDR6Ii8+JiN4YTsJPHBhdGggY2xhc3M9InN0MCIgZD0iTTE3IDE2bDMtNC0zIDJ6bTMtOGwtMy00djJ6Ii8+JiN4YTsJPGcgY2xhc3M9InN0MiI+JiN4YTsJCTxwYXRoIGQ9Ik0yMCA0bC00LTQtMiAyIDYgNnptLS4wMSA4bC01Ljk4IDUuOTkgMiAyTDIwIDE2eiIvPiYjeGE7CQk8Y2lyY2xlIGN4PSI2IiBjeT0iOS45OSIgcj0iMSIvPiYjeGE7CQk8Y2lyY2xlIGN4PSIxMCIgY3k9IjkuOTkiIHI9IjEiLz4mI3hhOwkJPGNpcmNsZSBjeD0iMTMuOTkiIGN5PSI5Ljk5IiByPSIxIi8+JiN4YTsJPC9nPiYjeGE7PC9zdmc+;" parent="fvY9OJy-OO_CtmtVDPCK-18" vertex="1">
          <mxGeometry width="30" height="24" relative="1" as="geometry">
            <mxPoint x="15" y="18" as="offset" />
          </mxGeometry>
        </mxCell>
        <mxCell id="fvY9OJy-OO_CtmtVDPCK-45" style="edgeStyle=orthogonalEdgeStyle;rounded=0;orthogonalLoop=1;jettySize=auto;html=1;exitX=1;exitY=0.5;exitDx=0;exitDy=0;entryX=0;entryY=0.5;entryDx=0;entryDy=0;fontColor=#999999;strokeColor=#4284F3;strokeWidth=2;startSize=4;endSize=4;" parent="GuzJ8BqgIlNCJu6hI-l5-1007" source="fvY9OJy-OO_CtmtVDPCK-16" target="fvY9OJy-OO_CtmtVDPCK-40" edge="1">
          <mxGeometry relative="1" as="geometry" />
        </mxCell>
        <mxCell id="fvY9OJy-OO_CtmtVDPCK-16" value="" style="strokeColor=#dddddd;shadow=1;strokeWidth=1;rounded=1;absoluteArcSize=1;arcSize=2;" parent="GuzJ8BqgIlNCJu6hI-l5-1007" vertex="1">
          <mxGeometry x="55" y="60" width="125" height="60" as="geometry" />
        </mxCell>
        <mxCell id="fvY9OJy-OO_CtmtVDPCK-17" value="Firestore" style="editableCssRules=.*;fontColor=#999999;shape=image;verticalLabelPosition=middle;labelBackgroundColor=#ffffff;verticalAlign=middle;labelPosition=right;align=left;spacingLeft=20;part=1;points=[];imageAspect=0;image=data:image/svg+xml,PHN2ZyB4bWxucz0iaHR0cDovL3d3dy53My5vcmcvMjAwMC9zdmciIHhtbG5zOnY9Imh0dHBzOi8vdmVjdGEuaW8vbmFubyIgd2lkdGg9IjMyMy45MDU2MTAzOTg2NzUxNSIgaGVpZ2h0PSIzNzYuNDIyMjk0OTYzNjg0MDciIHZpZXdCb3g9Ii0wLjA5NzAwMDAwMjg2MTAyMjk1IDAuMjg3OTk5OTg3NjAyMjMzOSA4NS42OTk5OTY5NDgyNDIxOSA5OS41OTUwMDEyMjA3MDMxMiI+JiN4YTs8c3R5bGUgdHlwZT0idGV4dC9jc3MiPiYjeGE7CS5zdDB7ZmlsbDojYWVjYmZhO30mI3hhOwkuc3Qxe2ZpbGw6IzY2OWRmNjt9JiN4YTsJLnN0MntmaWxsOiM0Mjg1ZjQ7fSYjeGE7PC9zdHlsZT4mI3hhOwk8cGF0aCBjbGFzcz0ic3QwIiBkPSJNLS4wOTcgNzUuODE1VjU1Ljg3NGw0Mi44NS0yMC4xODN2MTkuMDd6bTAtMzUuNDAzVjIwLjQ3MUw0Mi43NTMuMjg4djE5LjA3eiIvPiYjeGE7CTxwYXRoIGNsYXNzPSJzdDEiIGQ9Ik04NS42MDMgNzUuODE1VjU1Ljg3NGwtNDIuODUtMjAuMTgzdjE5LjA3em0wLTM1LjQwM1YyMC40NzFMNDIuNzUzLjI4OHYxOS4wN3oiLz4mI3hhOwk8cGF0aCBjbGFzcz0ic3QyIiBkPSJNNDIuNzUzIDgwLjMxNGwxNi4yMTctNy41MjUgMjEuMDg0IDkuNzE3LTM3LjMwMSAxNy4zNzd6Ii8+JiN4YTs8L3N2Zz4=;" parent="fvY9OJy-OO_CtmtVDPCK-16" vertex="1">
          <mxGeometry width="26" height="30" relative="1" as="geometry">
            <mxPoint x="17" y="15" as="offset" />
          </mxGeometry>
        </mxCell>
        <mxCell id="fvY9OJy-OO_CtmtVDPCK-44" value="" style="group" parent="GuzJ8BqgIlNCJu6hI-l5-1007" vertex="1" connectable="0">
          <mxGeometry x="230" y="60" width="125" height="60" as="geometry" />
        </mxCell>
        <mxCell id="fvY9OJy-OO_CtmtVDPCK-40" value="" style="strokeColor=#dddddd;shadow=1;strokeWidth=1;rounded=1;absoluteArcSize=1;arcSize=2;align=right;fontColor=#999999;" parent="fvY9OJy-OO_CtmtVDPCK-44" vertex="1">
          <mxGeometry width="125.00000000000001" height="60" as="geometry" />
        </mxCell>
        <mxCell id="fvY9OJy-OO_CtmtVDPCK-43" value="" style="shape=image;verticalLabelPosition=bottom;labelBackgroundColor=default;verticalAlign=top;aspect=fixed;imageAspect=0;image=https://upload.wikimedia.org/wikipedia/commons/thumb/3/30/Google_Sheets_logo_%282014-2020%29.svg/1498px-Google_Sheets_logo_%282014-2020%29.svg.png;" parent="fvY9OJy-OO_CtmtVDPCK-44" vertex="1">
          <mxGeometry x="10.416666666666668" y="5" width="36.54" height="50" as="geometry" />
        </mxCell>
        <mxCell id="fvY9OJy-OO_CtmtVDPCK-87" value="&lt;span style=&quot;text-align: right;&quot;&gt;Google&lt;/span&gt;&lt;br style=&quot;padding: 0px; margin: 0px; text-align: right;&quot;&gt;&lt;span style=&quot;text-align: right;&quot;&gt;Sheets&lt;/span&gt;" style="text;html=1;align=center;verticalAlign=middle;resizable=0;points=[];autosize=1;strokeColor=none;fillColor=none;fontColor=#999999;" parent="fvY9OJy-OO_CtmtVDPCK-44" vertex="1">
          <mxGeometry x="57" y="11" width="60" height="40" as="geometry" />
        </mxCell>
        <mxCell id="fvY9OJy-OO_CtmtVDPCK-112" value="Uploads Data" style="text;html=1;align=center;verticalAlign=middle;resizable=0;points=[];autosize=1;strokeColor=none;fillColor=none;fontColor=#999999;fontSize=8;" parent="GuzJ8BqgIlNCJu6hI-l5-1007" vertex="1">
          <mxGeometry x="-35" y="225" width="70" height="20" as="geometry" />
        </mxCell>
        <mxCell id="fvY9OJy-OO_CtmtVDPCK-116" value="Stores &lt;br&gt;Survey Data" style="text;html=1;align=center;verticalAlign=middle;resizable=0;points=[];autosize=1;strokeColor=none;fillColor=none;fontColor=#999999;fontSize=8;" parent="GuzJ8BqgIlNCJu6hI-l5-1007" vertex="1">
          <mxGeometry x="20" y="140" width="70" height="30" as="geometry" />
        </mxCell>
        <mxCell id="fvY9OJy-OO_CtmtVDPCK-118" value="Upload New Form" style="text;html=1;align=center;verticalAlign=middle;resizable=0;points=[];autosize=1;strokeColor=none;fillColor=none;fontSize=8;fontColor=#999999;" parent="GuzJ8BqgIlNCJu6hI-l5-1007" vertex="1">
          <mxGeometry x="247.5" y="200" width="90" height="20" as="geometry" />
        </mxCell>
        <mxCell id="fvY9OJy-OO_CtmtVDPCK-122" value="Creates &lt;br&gt;New Collection" style="text;html=1;align=center;verticalAlign=middle;resizable=0;points=[];autosize=1;strokeColor=none;fillColor=none;fontColor=#999999;fontSize=8;" parent="GuzJ8BqgIlNCJu6hI-l5-1007" vertex="1">
          <mxGeometry x="140" y="140" width="80" height="30" as="geometry" />
        </mxCell>
        <mxCell id="GuzJ8BqgIlNCJu6hI-l5-1014" value="Kiosk&lt;br&gt;&lt;span style=&quot;font-size: 10px;&quot;&gt;On Premise&lt;/span&gt;" style="rounded=1;absoluteArcSize=1;arcSize=2;html=1;strokeColor=none;gradientColor=none;shadow=0;dashed=0;fontSize=12;fontColor=#9E9E9E;align=left;verticalAlign=top;spacing=10;spacingTop=-4;fillColor=#EFEBE9;" parent="1" vertex="1">
          <mxGeometry x="126" y="303" width="205.25" height="178" as="geometry" />
        </mxCell>
        <mxCell id="cQzxX18LB3Btil48I0wv-1" style="edgeStyle=orthogonalEdgeStyle;rounded=0;orthogonalLoop=1;jettySize=auto;html=1;exitX=1;exitY=0.5;exitDx=0;exitDy=0;entryX=0;entryY=0.5;entryDx=0;entryDy=0;fontSize=12;fontColor=#999999;startSize=4;endSize=4;strokeColor=#4284F3;strokeWidth=2;" parent="1" source="fvY9OJy-OO_CtmtVDPCK-1" target="fvY9OJy-OO_CtmtVDPCK-3" edge="1">
          <mxGeometry relative="1" as="geometry" />
        </mxCell>
        <mxCell id="fvY9OJy-OO_CtmtVDPCK-1" value="Users" style="strokeColor=#dddddd;shadow=1;strokeWidth=1;rounded=1;absoluteArcSize=1;arcSize=2;labelPosition=center;verticalLabelPosition=middle;align=center;verticalAlign=bottom;spacingLeft=0;fontColor=#999999;fontSize=12;whiteSpace=wrap;spacingBottom=2;" parent="1" vertex="1">
          <mxGeometry x="148.63" y="371" width="70" height="85" as="geometry" />
        </mxCell>
        <mxCell id="fvY9OJy-OO_CtmtVDPCK-2" value="" style="sketch=0;dashed=0;connectable=0;html=1;fillColor=#757575;strokeColor=none;shape=mxgraph.gcp2.users;part=1;" parent="fvY9OJy-OO_CtmtVDPCK-1" vertex="1">
          <mxGeometry x="0.5" width="50" height="31.5" relative="1" as="geometry">
            <mxPoint x="-25" y="19.25" as="offset" />
          </mxGeometry>
        </mxCell>
        <mxCell id="fvY9OJy-OO_CtmtVDPCK-14" style="edgeStyle=orthogonalEdgeStyle;rounded=0;orthogonalLoop=1;jettySize=auto;html=1;exitX=1;exitY=0.75;exitDx=0;exitDy=0;entryX=0;entryY=0.5;entryDx=0;entryDy=0;strokeColor=#34a853;startSize=4;endSize=4;strokeWidth=2;" parent="1" source="fvY9OJy-OO_CtmtVDPCK-3" edge="1">
          <mxGeometry relative="1" as="geometry">
            <mxPoint x="421.25" y="433.9999999999999" as="targetPoint" />
          </mxGeometry>
        </mxCell>
        <mxCell id="fvY9OJy-OO_CtmtVDPCK-3" value="Desktop" style="strokeColor=#dddddd;shadow=1;strokeWidth=1;rounded=1;absoluteArcSize=1;arcSize=2;labelPosition=center;verticalLabelPosition=middle;align=center;verticalAlign=bottom;spacingLeft=0;fontColor=#999999;fontSize=12;whiteSpace=wrap;spacingBottom=2;" parent="1" vertex="1">
          <mxGeometry x="238.63" y="371" width="70" height="85" as="geometry" />
        </mxCell>
        <mxCell id="fvY9OJy-OO_CtmtVDPCK-4" value="" style="sketch=0;dashed=0;connectable=0;html=1;fillColor=#757575;strokeColor=none;shape=mxgraph.gcp2.desktop;part=1;" parent="fvY9OJy-OO_CtmtVDPCK-3" vertex="1">
          <mxGeometry x="0.5" width="50" height="45" relative="1" as="geometry">
            <mxPoint x="-25" y="12.5" as="offset" />
          </mxGeometry>
        </mxCell>
        <mxCell id="fvY9OJy-OO_CtmtVDPCK-51" value="Desktop and Mobile" style="strokeColor=#dddddd;shadow=1;strokeWidth=1;rounded=1;absoluteArcSize=1;arcSize=2;labelPosition=center;verticalLabelPosition=middle;align=center;verticalAlign=bottom;spacingLeft=0;fontColor=#999999;fontSize=12;whiteSpace=wrap;spacingBottom=2;" parent="1" vertex="1">
          <mxGeometry x="883.75" y="254" width="70" height="100" as="geometry" />
        </mxCell>
        <mxCell id="fvY9OJy-OO_CtmtVDPCK-52" value="" style="sketch=0;dashed=0;connectable=0;html=1;fillColor=#757575;strokeColor=none;shape=mxgraph.gcp2.desktop_and_mobile;part=1;fontColor=#999999;" parent="fvY9OJy-OO_CtmtVDPCK-51" vertex="1">
          <mxGeometry x="0.5" width="50" height="33" relative="1" as="geometry">
            <mxPoint x="-25" y="18.5" as="offset" />
          </mxGeometry>
        </mxCell>
        <mxCell id="fvY9OJy-OO_CtmtVDPCK-88" value="" style="strokeColor=#dddddd;fillColor=#ffffff;shadow=1;strokeWidth=1;rounded=1;absoluteArcSize=1;arcSize=2;labelPosition=center;verticalLabelPosition=middle;align=center;verticalAlign=bottom;spacingLeft=0;fontColor=#999999;fontSize=12;whiteSpace=wrap;spacingBottom=2;html=1;" parent="1" vertex="1">
          <mxGeometry x="973.75" y="254" width="70" height="100" as="geometry" />
        </mxCell>
        <mxCell id="fvY9OJy-OO_CtmtVDPCK-89" value="" style="dashed=0;connectable=0;html=1;fillColor=#757575;strokeColor=none;shape=mxgraph.gcp2.users;part=1;" parent="fvY9OJy-OO_CtmtVDPCK-88" vertex="1">
          <mxGeometry x="0.5" width="50" height="31.5" relative="1" as="geometry">
            <mxPoint x="-25" y="19.25" as="offset" />
          </mxGeometry>
        </mxCell>
        <mxCell id="fvY9OJy-OO_CtmtVDPCK-90" value="Faculty &amp;amp;&lt;br&gt;Staff" style="text;html=1;align=center;verticalAlign=middle;resizable=0;points=[];autosize=1;strokeColor=none;fillColor=none;fontColor=#999999;" parent="fvY9OJy-OO_CtmtVDPCK-88" vertex="1">
          <mxGeometry y="60" width="70" height="40" as="geometry" />
        </mxCell>
        <mxCell id="fvY9OJy-OO_CtmtVDPCK-105" value="" style="group" parent="1" vertex="1" connectable="0">
          <mxGeometry x="671.25" y="554" width="125" height="60" as="geometry" />
        </mxCell>
        <mxCell id="fvY9OJy-OO_CtmtVDPCK-99" value="" style="strokeColor=#dddddd;shadow=1;strokeWidth=1;rounded=1;absoluteArcSize=1;arcSize=2;" parent="fvY9OJy-OO_CtmtVDPCK-105" vertex="1">
          <mxGeometry width="125" height="60" as="geometry" />
        </mxCell>
        <mxCell id="fvY9OJy-OO_CtmtVDPCK-101" value="" style="shape=image;verticalLabelPosition=bottom;labelBackgroundColor=default;verticalAlign=top;aspect=fixed;imageAspect=0;image=https://www.svgrepo.com/show/327408/logo-vercel.svg;" parent="fvY9OJy-OO_CtmtVDPCK-105" vertex="1">
          <mxGeometry x="10" y="10" width="40" height="40" as="geometry" />
        </mxCell>
        <mxCell id="fvY9OJy-OO_CtmtVDPCK-102" value="Vercel &lt;br&gt;Hosting" style="text;html=1;align=left;verticalAlign=middle;resizable=0;points=[];autosize=1;strokeColor=none;fillColor=none;fontColor=#999999;" parent="fvY9OJy-OO_CtmtVDPCK-105" vertex="1">
          <mxGeometry x="60" y="10" width="60" height="40" as="geometry" />
        </mxCell>
        <mxCell id="fvY9OJy-OO_CtmtVDPCK-123" value="Download New Survey" style="text;html=1;align=center;verticalAlign=middle;resizable=0;points=[];autosize=1;strokeColor=none;fillColor=none;fontColor=#999999;fontSize=8;" parent="1" vertex="1">
          <mxGeometry x="306.25" y="283" width="100" height="20" as="geometry" />
        </mxCell>
        <mxCell id="fvY9OJy-OO_CtmtVDPCK-125" style="edgeStyle=orthogonalEdgeStyle;rounded=0;orthogonalLoop=1;jettySize=auto;html=1;exitX=0;exitY=0.5;exitDx=0;exitDy=0;entryX=0.5;entryY=0;entryDx=0;entryDy=0;fontSize=8;fontColor=#999999;startSize=4;endSize=4;strokeColor=#FBBC05;strokeWidth=2;" parent="1" source="fvY9OJy-OO_CtmtVDPCK-16" target="fvY9OJy-OO_CtmtVDPCK-3" edge="1">
          <mxGeometry relative="1" as="geometry" />
        </mxCell>
        <mxCell id="fvY9OJy-OO_CtmtVDPCK-128" style="edgeStyle=orthogonalEdgeStyle;rounded=0;orthogonalLoop=1;jettySize=auto;html=1;entryX=0;entryY=0.5;entryDx=0;entryDy=0;fontSize=8;fontColor=#999999;startSize=4;endSize=4;strokeColor=#4284F3;strokeWidth=2;" parent="1" source="fvY9OJy-OO_CtmtVDPCK-40" target="fvY9OJy-OO_CtmtVDPCK-51" edge="1">
          <mxGeometry relative="1" as="geometry" />
        </mxCell>
        <mxCell id="fvY9OJy-OO_CtmtVDPCK-130" value="DLS ASMC Kiosk App System Design" style="text;html=1;align=center;verticalAlign=middle;resizable=0;points=[];autosize=1;strokeColor=none;fillColor=none;fontSize=16;fontColor=#4284F3;" parent="1" vertex="1">
          <mxGeometry x="440" y="140" width="290" height="30" as="geometry" />
        </mxCell>
        <mxCell id="fvY9OJy-OO_CtmtVDPCK-92" value="Survey/Form Creator&lt;br&gt;&lt;span style=&quot;font-size: 10px;&quot;&gt;Web App&lt;/span&gt;" style="sketch=0;points=[[0,0,0],[0.25,0,0],[0.5,0,0],[0.75,0,0],[1,0,0],[1,0.25,0],[1,0.5,0],[1,0.75,0],[1,1,0],[0.75,1,0],[0.5,1,0],[0.25,1,0],[0,1,0],[0,0.75,0],[0,0.5,0],[0,0.25,0]];rounded=1;absoluteArcSize=1;arcSize=2;html=1;strokeColor=none;gradientColor=none;shadow=0;dashed=0;fontSize=12;fontColor=#9E9E9E;align=left;verticalAlign=top;spacing=10;spacingTop=-4;fillColor=#F1F8E9;" parent="1" vertex="1">
          <mxGeometry x="861.25" y="394" width="200" height="180" as="geometry" />
        </mxCell>
        <mxCell id="fvY9OJy-OO_CtmtVDPCK-93" value="" style="strokeColor=#dddddd;fillColor=#ffffff;shadow=1;strokeWidth=1;rounded=1;absoluteArcSize=1;arcSize=2;labelPosition=center;verticalLabelPosition=middle;align=center;verticalAlign=bottom;spacingLeft=0;fontColor=#999999;fontSize=12;whiteSpace=wrap;spacingBottom=2;html=1;" parent="1" vertex="1">
          <mxGeometry x="971.25" y="444" width="70" height="100" as="geometry" />
        </mxCell>
        <mxCell id="fvY9OJy-OO_CtmtVDPCK-94" value="" style="dashed=0;connectable=0;html=1;fillColor=#757575;strokeColor=none;shape=mxgraph.gcp2.users;part=1;" parent="fvY9OJy-OO_CtmtVDPCK-93" vertex="1">
          <mxGeometry x="0.5" width="50" height="31.5" relative="1" as="geometry">
            <mxPoint x="-25" y="19.25" as="offset" />
          </mxGeometry>
        </mxCell>
        <mxCell id="fvY9OJy-OO_CtmtVDPCK-95" value="IT Dept." style="text;html=1;align=center;verticalAlign=middle;resizable=0;points=[];autosize=1;strokeColor=none;fillColor=none;fontColor=#999999;" parent="fvY9OJy-OO_CtmtVDPCK-93" vertex="1">
          <mxGeometry y="65" width="70" height="30" as="geometry" />
        </mxCell>
        <mxCell id="cQzxX18LB3Btil48I0wv-3" style="edgeStyle=orthogonalEdgeStyle;rounded=0;orthogonalLoop=1;jettySize=auto;html=1;exitX=0;exitY=0.5;exitDx=0;exitDy=0;entryX=1;entryY=0.5;entryDx=0;entryDy=0;fontSize=12;fontColor=#999999;startSize=4;endSize=4;strokeColor=#FBBC05;strokeWidth=2;" parent="1" source="fvY9OJy-OO_CtmtVDPCK-96" target="fvY9OJy-OO_CtmtVDPCK-18" edge="1">
          <mxGeometry relative="1" as="geometry" />
        </mxCell>
        <mxCell id="fvY9OJy-OO_CtmtVDPCK-96" value="Desktop and Mobile" style="strokeColor=#dddddd;shadow=1;strokeWidth=1;rounded=1;absoluteArcSize=1;arcSize=2;labelPosition=center;verticalLabelPosition=middle;align=center;verticalAlign=bottom;spacingLeft=0;fontColor=#999999;fontSize=12;whiteSpace=wrap;spacingBottom=2;" parent="1" vertex="1">
          <mxGeometry x="881.25" y="444" width="70" height="100" as="geometry" />
        </mxCell>
        <mxCell id="fvY9OJy-OO_CtmtVDPCK-97" value="" style="sketch=0;dashed=0;connectable=0;html=1;fillColor=#757575;strokeColor=none;shape=mxgraph.gcp2.desktop_and_mobile;part=1;fontColor=#999999;" parent="fvY9OJy-OO_CtmtVDPCK-96" vertex="1">
          <mxGeometry x="0.5" width="50" height="33" relative="1" as="geometry">
            <mxPoint x="-25" y="18.5" as="offset" />
          </mxGeometry>
        </mxCell>
        <mxCell id="fvY9OJy-OO_CtmtVDPCK-127" style="edgeStyle=orthogonalEdgeStyle;rounded=0;orthogonalLoop=1;jettySize=auto;html=1;fontSize=8;fontColor=#999999;startSize=4;endSize=4;strokeColor=#4284F3;strokeWidth=2;entryX=0.5;entryY=1;entryDx=0;entryDy=0;" parent="1" source="fvY9OJy-OO_CtmtVDPCK-99" target="fvY9OJy-OO_CtmtVDPCK-96" edge="1">
          <mxGeometry relative="1" as="geometry">
            <mxPoint x="920" y="640" as="targetPoint" />
          </mxGeometry>
        </mxCell>
      </root>
    </mxGraphModel>
  </diagram>
  <diagram id="woLjATXjnnTsBToZ0MOh" name="Kiosk Container">
    <mxGraphModel dx="886" dy="550" grid="0" gridSize="10" guides="1" tooltips="1" connect="1" arrows="1" fold="1" page="1" pageScale="1" pageWidth="850" pageHeight="1100" math="0" shadow="0">
      <root>
        <mxCell id="0" />
        <mxCell id="1" parent="0" />
        <mxCell id="Af5jPtuhy1w7F47pub4l-1" value="Kiosk&lt;br&gt;&lt;span style=&quot;font-size: 10px;&quot;&gt;On Premise&lt;/span&gt;" style="rounded=1;absoluteArcSize=1;arcSize=2;html=1;strokeColor=none;gradientColor=none;shadow=0;dashed=0;fontSize=12;fontColor=#9E9E9E;align=left;verticalAlign=top;spacing=10;spacingTop=-4;fillColor=#EFEBE9;" parent="1" vertex="1">
          <mxGeometry x="100" y="336" width="443" height="465" as="geometry" />
        </mxCell>
        <mxCell id="Af5jPtuhy1w7F47pub4l-2" value="Users" style="strokeColor=#dddddd;shadow=1;strokeWidth=1;rounded=1;absoluteArcSize=1;arcSize=2;labelPosition=center;verticalLabelPosition=middle;align=center;verticalAlign=bottom;spacingLeft=0;fontColor=#999999;fontSize=12;whiteSpace=wrap;spacingBottom=2;" parent="1" vertex="1">
          <mxGeometry x="115" y="389" width="70" height="85" as="geometry" />
        </mxCell>
        <mxCell id="Af5jPtuhy1w7F47pub4l-3" value="" style="sketch=0;dashed=0;connectable=0;html=1;fillColor=#757575;strokeColor=none;shape=mxgraph.gcp2.users;part=1;" parent="Af5jPtuhy1w7F47pub4l-2" vertex="1">
          <mxGeometry x="0.5" width="50" height="31.5" relative="1" as="geometry">
            <mxPoint x="-25" y="19.25" as="offset" />
          </mxGeometry>
        </mxCell>
        <mxCell id="THVWTN3h8fqIWn3eamhT-3" style="edgeStyle=orthogonalEdgeStyle;rounded=0;orthogonalLoop=1;jettySize=auto;html=1;exitX=0.5;exitY=1;exitDx=0;exitDy=0;entryX=0.5;entryY=0;entryDx=0;entryDy=0;fontSize=12;fontColor=#999999;startArrow=none;startFill=0;endArrow=classic;endFill=1;startSize=4;endSize=4;strokeColor=#4284F3;strokeWidth=2;" parent="1" source="Af5jPtuhy1w7F47pub4l-4" target="9nuEHNGPODOp0oY6rGeE-17" edge="1">
          <mxGeometry relative="1" as="geometry" />
        </mxCell>
        <mxCell id="Af5jPtuhy1w7F47pub4l-4" value="Desktop" style="strokeColor=#dddddd;shadow=1;strokeWidth=1;rounded=1;absoluteArcSize=1;arcSize=2;labelPosition=center;verticalLabelPosition=middle;align=center;verticalAlign=bottom;spacingLeft=0;fontColor=#999999;fontSize=12;whiteSpace=wrap;spacingBottom=2;" parent="1" vertex="1">
          <mxGeometry x="205" y="389" width="70" height="85" as="geometry" />
        </mxCell>
        <mxCell id="Af5jPtuhy1w7F47pub4l-5" value="" style="sketch=0;dashed=0;connectable=0;html=1;fillColor=#757575;strokeColor=none;shape=mxgraph.gcp2.desktop;part=1;" parent="Af5jPtuhy1w7F47pub4l-4" vertex="1">
          <mxGeometry x="0.5" width="50" height="45" relative="1" as="geometry">
            <mxPoint x="-25" y="12.5" as="offset" />
          </mxGeometry>
        </mxCell>
        <mxCell id="iVi_FH87Eo4DZNstUo9O-3" value="" style="group" parent="1" vertex="1" connectable="0">
          <mxGeometry x="170" y="710" width="150" height="71.28" as="geometry" />
        </mxCell>
        <mxCell id="iVi_FH87Eo4DZNstUo9O-4" value="" style="strokeColor=#dddddd;shadow=1;strokeWidth=1;rounded=1;absoluteArcSize=1;arcSize=2;fontSize=12;fontColor=#4284F3;container=0;" parent="iVi_FH87Eo4DZNstUo9O-3" vertex="1">
          <mxGeometry width="140" height="60" as="geometry" />
        </mxCell>
        <mxCell id="iVi_FH87Eo4DZNstUo9O-2" value="Local File&lt;br&gt;&lt;div style=&quot;text-align: left;&quot;&gt;&lt;span style=&quot;background-color: initial;&quot;&gt;System&lt;/span&gt;&lt;/div&gt;" style="text;html=1;align=center;verticalAlign=middle;resizable=0;points=[];autosize=1;strokeColor=none;fillColor=none;fontSize=12;fontColor=#999999;" parent="iVi_FH87Eo4DZNstUo9O-3" vertex="1">
          <mxGeometry x="60" y="10" width="70" height="40" as="geometry" />
        </mxCell>
        <mxCell id="iVi_FH87Eo4DZNstUo9O-1" value="" style="sketch=0;outlineConnect=0;fontColor=#232F3E;gradientColor=none;fillColor=#3F8624;strokeColor=none;dashed=0;verticalLabelPosition=bottom;verticalAlign=top;align=center;html=1;fontSize=12;fontStyle=0;aspect=fixed;pointerEvents=1;shape=mxgraph.aws4.file_system;" parent="iVi_FH87Eo4DZNstUo9O-3" vertex="1">
          <mxGeometry x="20" y="14.360000000000014" width="33.42" height="31.28" as="geometry" />
        </mxCell>
        <mxCell id="Tje2bsMvqZTvBzl9sIvg-3" value="" style="strokeColor=#dddddd;shadow=1;strokeWidth=1;rounded=1;absoluteArcSize=1;arcSize=2;fontSize=12;fontColor=#4284F3;" parent="1" vertex="1">
          <mxGeometry x="675.87" y="860" width="140" height="60" as="geometry" />
        </mxCell>
        <mxCell id="Tje2bsMvqZTvBzl9sIvg-5" value="" style="group" parent="1" vertex="1" connectable="0">
          <mxGeometry x="590" y="549.5" width="145.87" height="60" as="geometry" />
        </mxCell>
        <mxCell id="9nuEHNGPODOp0oY6rGeE-15" value="" style="strokeColor=#dddddd;shadow=1;strokeWidth=1;rounded=1;absoluteArcSize=1;arcSize=2;fontSize=12;fontColor=#4284F3;" parent="Tje2bsMvqZTvBzl9sIvg-5" vertex="1">
          <mxGeometry width="140" height="60" as="geometry" />
        </mxCell>
        <mxCell id="Tje2bsMvqZTvBzl9sIvg-1" value="" style="shape=mxgraph.gcp2.google_cloud_platform;fillColor=#F6F6F6;strokeColor=none;shadow=0;gradientColor=none;" parent="Tje2bsMvqZTvBzl9sIvg-5" vertex="1">
          <mxGeometry x="10" y="15" width="34.5" height="30" as="geometry" />
        </mxCell>
        <mxCell id="Tje2bsMvqZTvBzl9sIvg-4" value="Google Cloud&lt;br&gt;&lt;div style=&quot;text-align: left;&quot;&gt;&lt;span style=&quot;background-color: initial;&quot;&gt;Platform&lt;/span&gt;&lt;/div&gt;" style="text;html=1;align=center;verticalAlign=middle;resizable=0;points=[];autosize=1;strokeColor=none;fillColor=none;fontSize=12;fontColor=#999999;" parent="Tje2bsMvqZTvBzl9sIvg-5" vertex="1">
          <mxGeometry x="45.870000000000005" y="10" width="100" height="40" as="geometry" />
        </mxCell>
        <mxCell id="EUngJqEKeAc1ejck9wmo-8" style="edgeStyle=orthogonalEdgeStyle;rounded=0;orthogonalLoop=1;jettySize=auto;html=1;exitX=0.5;exitY=1;exitDx=0;exitDy=0;entryX=0.5;entryY=0;entryDx=0;entryDy=0;fontSize=12;fontColor=#999999;startArrow=none;startFill=0;endArrow=classic;endFill=1;startSize=4;endSize=4;strokeColor=#FBBC05;strokeWidth=2;" parent="1" source="9nuEHNGPODOp0oY6rGeE-17" target="iVi_FH87Eo4DZNstUo9O-4" edge="1">
          <mxGeometry relative="1" as="geometry" />
        </mxCell>
        <mxCell id="THVWTN3h8fqIWn3eamhT-1" style="edgeStyle=orthogonalEdgeStyle;rounded=0;orthogonalLoop=1;jettySize=auto;html=1;exitX=1;exitY=0.75;exitDx=0;exitDy=0;entryX=0;entryY=0.75;entryDx=0;entryDy=0;fontSize=12;fontColor=#999999;startArrow=none;startFill=0;endArrow=classic;endFill=1;startSize=4;endSize=4;strokeColor=#34A853;strokeWidth=2;" parent="1" source="9nuEHNGPODOp0oY6rGeE-17" target="9nuEHNGPODOp0oY6rGeE-15" edge="1">
          <mxGeometry relative="1" as="geometry" />
        </mxCell>
        <mxCell id="9nuEHNGPODOp0oY6rGeE-17" value="" style="strokeColor=#dddddd;shadow=1;strokeWidth=1;rounded=1;absoluteArcSize=1;arcSize=2;fontSize=12;fontColor=#4284F3;container=0;" parent="1" vertex="1">
          <mxGeometry x="170" y="550" width="140" height="60" as="geometry" />
        </mxCell>
        <mxCell id="DxgEhGUNe6L8AOkL43BP-1" value="" style="group" parent="1" vertex="1" connectable="0">
          <mxGeometry x="180" y="564" width="140" height="31" as="geometry" />
        </mxCell>
        <mxCell id="Af5jPtuhy1w7F47pub4l-7" value="" style="shape=image;verticalLabelPosition=bottom;labelBackgroundColor=default;verticalAlign=top;aspect=fixed;imageAspect=0;image=https://upload.wikimedia.org/wikipedia/commons/thumb/0/0b/Qt_logo_2016.svg/1280px-Qt_logo_2016.svg.png;" parent="DxgEhGUNe6L8AOkL43BP-1" vertex="1">
          <mxGeometry width="42.31" height="31" as="geometry" />
        </mxCell>
        <mxCell id="9nuEHNGPODOp0oY6rGeE-19" value="Kiosk Survey" style="text;html=1;align=left;verticalAlign=middle;resizable=0;points=[];autosize=1;strokeColor=none;fillColor=none;fontSize=12;fontColor=#999999;" parent="DxgEhGUNe6L8AOkL43BP-1" vertex="1">
          <mxGeometry x="50" width="90" height="30" as="geometry" />
        </mxCell>
        <mxCell id="EUngJqEKeAc1ejck9wmo-11" style="edgeStyle=orthogonalEdgeStyle;rounded=0;orthogonalLoop=1;jettySize=auto;html=1;exitX=1;exitY=0.5;exitDx=0;exitDy=0;entryX=0.5;entryY=1;entryDx=0;entryDy=0;fontSize=12;fontColor=#999999;startArrow=none;startFill=0;endArrow=classic;endFill=1;startSize=4;endSize=4;strokeColor=#FBBC05;strokeWidth=2;" parent="1" source="EUngJqEKeAc1ejck9wmo-4" target="9nuEHNGPODOp0oY6rGeE-15" edge="1">
          <mxGeometry relative="1" as="geometry" />
        </mxCell>
        <mxCell id="EUngJqEKeAc1ejck9wmo-4" value="" style="strokeColor=#dddddd;shadow=1;strokeWidth=1;rounded=1;absoluteArcSize=1;arcSize=2;fontSize=12;fontColor=#4284F3;container=0;" parent="1" vertex="1">
          <mxGeometry x="360" y="710" width="140" height="60" as="geometry" />
        </mxCell>
        <mxCell id="EUngJqEKeAc1ejck9wmo-6" value="" style="shape=image;html=1;verticalAlign=top;verticalLabelPosition=bottom;labelBackgroundColor=#ffffff;imageAspect=0;aspect=fixed;image=https://cdn1.iconfinder.com/data/icons/material-core/20/schedule-128.png;fontSize=12;fontColor=#999999;" parent="1" vertex="1">
          <mxGeometry x="371.51" y="721" width="40" height="40" as="geometry" />
        </mxCell>
        <mxCell id="EUngJqEKeAc1ejck9wmo-7" value="Scheduler" style="text;html=1;align=left;verticalAlign=middle;resizable=0;points=[];autosize=1;strokeColor=none;fillColor=none;fontSize=12;fontColor=#999999;" parent="1" vertex="1">
          <mxGeometry x="420" y="726" width="80" height="30" as="geometry" />
        </mxCell>
        <mxCell id="EUngJqEKeAc1ejck9wmo-9" style="edgeStyle=orthogonalEdgeStyle;rounded=0;orthogonalLoop=1;jettySize=auto;html=1;exitX=1;exitY=0.5;exitDx=0;exitDy=0;entryX=0;entryY=0.5;entryDx=0;entryDy=0;fontSize=12;fontColor=#999999;startArrow=none;startFill=0;endArrow=classic;endFill=1;startSize=4;endSize=4;strokeColor=#FBBC05;strokeWidth=2;" parent="1" source="iVi_FH87Eo4DZNstUo9O-4" target="EUngJqEKeAc1ejck9wmo-4" edge="1">
          <mxGeometry relative="1" as="geometry" />
        </mxCell>
        <mxCell id="THVWTN3h8fqIWn3eamhT-2" style="edgeStyle=orthogonalEdgeStyle;rounded=0;orthogonalLoop=1;jettySize=auto;html=1;exitX=0;exitY=0.25;exitDx=0;exitDy=0;entryX=1;entryY=0.25;entryDx=0;entryDy=0;fontSize=12;fontColor=#999999;startArrow=none;startFill=0;endArrow=classic;endFill=1;startSize=4;endSize=4;strokeColor=#34A853;strokeWidth=2;" parent="1" source="9nuEHNGPODOp0oY6rGeE-15" target="9nuEHNGPODOp0oY6rGeE-17" edge="1">
          <mxGeometry relative="1" as="geometry" />
        </mxCell>
        <mxCell id="THVWTN3h8fqIWn3eamhT-4" value="Listens for new forms" style="text;html=1;align=center;verticalAlign=middle;resizable=0;points=[];autosize=1;strokeColor=none;fillColor=none;fontSize=12;fontColor=#999999;" parent="1" vertex="1">
          <mxGeometry x="360" y="595" width="140" height="30" as="geometry" />
        </mxCell>
        <mxCell id="THVWTN3h8fqIWn3eamhT-7" value="Downloads new forms" style="text;html=1;align=center;verticalAlign=middle;resizable=0;points=[];autosize=1;strokeColor=none;fillColor=none;fontSize=12;fontColor=#999999;" parent="1" vertex="1">
          <mxGeometry x="360" y="534" width="140" height="30" as="geometry" />
        </mxCell>
        <mxCell id="THVWTN3h8fqIWn3eamhT-8" value="Store user answers" style="text;html=1;align=center;verticalAlign=middle;resizable=0;points=[];autosize=1;strokeColor=none;fillColor=none;fontSize=12;fontColor=#999999;" parent="1" vertex="1">
          <mxGeometry x="110" y="650" width="130" height="30" as="geometry" />
        </mxCell>
        <mxCell id="THVWTN3h8fqIWn3eamhT-9" value="If connection is stable&lt;br&gt;&lt;div style=&quot;text-align: right;&quot;&gt;&lt;span style=&quot;background-color: initial;&quot;&gt;Uploads answers&lt;/span&gt;&lt;/div&gt;" style="text;html=1;align=center;verticalAlign=middle;resizable=0;points=[];autosize=1;strokeColor=none;fillColor=none;fontSize=12;fontColor=#999999;" parent="1" vertex="1">
          <mxGeometry x="510" y="741.28" width="140" height="40" as="geometry" />
        </mxCell>
      </root>
    </mxGraphModel>
  </diagram>
  <diagram id="4k-cfphphz1798a73_6n" name="Admin Container">
    <mxGraphModel dx="-25" dy="512" grid="0" gridSize="10" guides="1" tooltips="1" connect="1" arrows="1" fold="1" page="1" pageScale="1" pageWidth="850" pageHeight="1100" math="0" shadow="0">
      <root>
        <mxCell id="0" />
        <mxCell id="1" parent="0" />
        <mxCell id="41GXj9PLcoB84t9lNNXR-1" value="Survey/Form Creator&lt;br&gt;&lt;span style=&quot;font-size: 10px;&quot;&gt;Web App&lt;/span&gt;" style="sketch=0;points=[[0,0,0],[0.25,0,0],[0.5,0,0],[0.75,0,0],[1,0,0],[1,0.25,0],[1,0.5,0],[1,0.75,0],[1,1,0],[0.75,1,0],[0.5,1,0],[0.25,1,0],[0,1,0],[0,0.75,0],[0,0.5,0],[0,0.25,0]];rounded=1;absoluteArcSize=1;arcSize=2;html=1;strokeColor=none;gradientColor=none;shadow=0;dashed=0;fontSize=12;fontColor=#9E9E9E;align=left;verticalAlign=top;spacing=10;spacingTop=-4;fillColor=#F1F8E9;" parent="1" vertex="1">
          <mxGeometry x="1130" y="330" width="370" height="280" as="geometry" />
        </mxCell>
        <mxCell id="HrRFDO6_DDnTuoshuTs2-4" style="edgeStyle=orthogonalEdgeStyle;rounded=0;orthogonalLoop=1;jettySize=auto;html=1;exitX=0;exitY=0.5;exitDx=0;exitDy=0;entryX=1;entryY=0.5;entryDx=0;entryDy=0;fontSize=12;fontColor=#999999;startArrow=none;startFill=0;endArrow=classic;endFill=1;startSize=4;endSize=4;strokeColor=#4284F3;strokeWidth=2;" parent="1" source="41GXj9PLcoB84t9lNNXR-2" target="41GXj9PLcoB84t9lNNXR-5" edge="1">
          <mxGeometry relative="1" as="geometry" />
        </mxCell>
        <mxCell id="41GXj9PLcoB84t9lNNXR-2" value="" style="strokeColor=#dddddd;fillColor=#ffffff;shadow=1;strokeWidth=1;rounded=1;absoluteArcSize=1;arcSize=2;labelPosition=center;verticalLabelPosition=middle;align=center;verticalAlign=bottom;spacingLeft=0;fontColor=#999999;fontSize=12;whiteSpace=wrap;spacingBottom=2;html=1;" parent="1" vertex="1">
          <mxGeometry x="1410" y="380" width="70" height="84" as="geometry" />
        </mxCell>
        <mxCell id="41GXj9PLcoB84t9lNNXR-3" value="" style="dashed=0;connectable=0;html=1;fillColor=#757575;strokeColor=none;shape=mxgraph.gcp2.users;part=1;" parent="41GXj9PLcoB84t9lNNXR-2" vertex="1">
          <mxGeometry x="0.5" width="50" height="31.5" relative="1" as="geometry">
            <mxPoint x="-25" y="19.25" as="offset" />
          </mxGeometry>
        </mxCell>
        <mxCell id="41GXj9PLcoB84t9lNNXR-4" value="IT Dept." style="text;html=1;align=center;verticalAlign=middle;resizable=0;points=[];autosize=1;strokeColor=none;fillColor=none;fontColor=#999999;" parent="41GXj9PLcoB84t9lNNXR-2" vertex="1">
          <mxGeometry y="54.6" width="70" height="30" as="geometry" />
        </mxCell>
        <mxCell id="HrRFDO6_DDnTuoshuTs2-1" style="edgeStyle=orthogonalEdgeStyle;rounded=0;orthogonalLoop=1;jettySize=auto;html=1;exitX=0;exitY=0.5;exitDx=0;exitDy=0;fontSize=12;fontColor=#999999;startArrow=none;startFill=0;endArrow=classic;endFill=1;startSize=4;endSize=4;strokeColor=#4284F3;strokeWidth=2;entryX=1;entryY=0.5;entryDx=0;entryDy=0;" parent="1" source="41GXj9PLcoB84t9lNNXR-5" target="Qy8mp3kurcu8XMk2jeuy-2" edge="1">
          <mxGeometry relative="1" as="geometry">
            <mxPoint x="1080" y="400" as="targetPoint" />
          </mxGeometry>
        </mxCell>
        <mxCell id="41GXj9PLcoB84t9lNNXR-5" value="Browser" style="strokeColor=#dddddd;shadow=1;strokeWidth=1;rounded=1;absoluteArcSize=1;arcSize=2;labelPosition=center;verticalLabelPosition=middle;align=center;verticalAlign=bottom;spacingLeft=0;fontColor=#999999;fontSize=12;whiteSpace=wrap;spacingBottom=2;" parent="1" vertex="1">
          <mxGeometry x="1208" y="380" width="70" height="84" as="geometry" />
        </mxCell>
        <mxCell id="41GXj9PLcoB84t9lNNXR-6" value="" style="sketch=0;dashed=0;connectable=0;html=1;fillColor=#757575;strokeColor=none;shape=mxgraph.gcp2.desktop_and_mobile;part=1;fontColor=#999999;" parent="41GXj9PLcoB84t9lNNXR-5" vertex="1">
          <mxGeometry x="0.5" width="50" height="33" relative="1" as="geometry">
            <mxPoint x="-25" y="18.5" as="offset" />
          </mxGeometry>
        </mxCell>
        <mxCell id="tw7i0WrtzU2Cmjyz0Lik-1" value="" style="group" parent="1" vertex="1" connectable="0">
          <mxGeometry x="1180.5" y="630" width="125" height="60" as="geometry" />
        </mxCell>
        <mxCell id="tw7i0WrtzU2Cmjyz0Lik-2" value="" style="strokeColor=#dddddd;shadow=1;strokeWidth=1;rounded=1;absoluteArcSize=1;arcSize=2;" parent="tw7i0WrtzU2Cmjyz0Lik-1" vertex="1">
          <mxGeometry width="125" height="60" as="geometry" />
        </mxCell>
        <mxCell id="tw7i0WrtzU2Cmjyz0Lik-3" value="" style="shape=image;verticalLabelPosition=bottom;labelBackgroundColor=default;verticalAlign=top;aspect=fixed;imageAspect=0;image=https://www.svgrepo.com/show/327408/logo-vercel.svg;" parent="tw7i0WrtzU2Cmjyz0Lik-1" vertex="1">
          <mxGeometry x="10" y="10" width="40" height="40" as="geometry" />
        </mxCell>
        <mxCell id="tw7i0WrtzU2Cmjyz0Lik-4" value="Vercel &lt;br&gt;Hosting" style="text;html=1;align=left;verticalAlign=middle;resizable=0;points=[];autosize=1;strokeColor=none;fillColor=none;fontColor=#999999;" parent="tw7i0WrtzU2Cmjyz0Lik-1" vertex="1">
          <mxGeometry x="60" y="10" width="60" height="40" as="geometry" />
        </mxCell>
        <mxCell id="Qy8mp3kurcu8XMk2jeuy-1" value="" style="group" parent="1" vertex="1" connectable="0">
          <mxGeometry x="900" y="392" width="145.87" height="60" as="geometry" />
        </mxCell>
        <mxCell id="Qy8mp3kurcu8XMk2jeuy-2" value="" style="strokeColor=#dddddd;shadow=1;strokeWidth=1;rounded=1;absoluteArcSize=1;arcSize=2;fontSize=12;fontColor=#4284F3;" parent="Qy8mp3kurcu8XMk2jeuy-1" vertex="1">
          <mxGeometry width="140" height="60" as="geometry" />
        </mxCell>
        <mxCell id="Qy8mp3kurcu8XMk2jeuy-4" value="Google Cloud&lt;br&gt;&lt;div style=&quot;text-align: left;&quot;&gt;&lt;span style=&quot;background-color: initial;&quot;&gt;Platform&lt;/span&gt;&lt;/div&gt;" style="text;html=1;align=center;verticalAlign=middle;resizable=0;points=[];autosize=1;strokeColor=none;fillColor=none;fontSize=12;fontColor=#999999;" parent="Qy8mp3kurcu8XMk2jeuy-2" vertex="1">
          <mxGeometry x="40" y="10" width="100" height="40" as="geometry" />
        </mxCell>
        <mxCell id="Qy8mp3kurcu8XMk2jeuy-3" value="" style="shape=mxgraph.gcp2.google_cloud_platform;fillColor=#F6F6F6;strokeColor=none;shadow=0;gradientColor=none;" parent="Qy8mp3kurcu8XMk2jeuy-1" vertex="1">
          <mxGeometry x="10" y="15" width="34.5" height="30" as="geometry" />
        </mxCell>
        <mxCell id="pgruRRMdoTEAT8E5GWi7-2" style="edgeStyle=orthogonalEdgeStyle;rounded=0;orthogonalLoop=1;jettySize=auto;html=1;exitX=0.5;exitY=0;exitDx=0;exitDy=0;entryX=0.5;entryY=1;entryDx=0;entryDy=0;fontSize=12;fontColor=#999999;startArrow=none;startFill=0;endArrow=classic;endFill=1;startSize=4;endSize=4;strokeColor=#4284F3;strokeWidth=2;" parent="1" source="pgruRRMdoTEAT8E5GWi7-1" target="41GXj9PLcoB84t9lNNXR-5" edge="1">
          <mxGeometry relative="1" as="geometry" />
        </mxCell>
        <mxCell id="pgruRRMdoTEAT8E5GWi7-1" value="" style="shape=image;verticalLabelPosition=bottom;labelBackgroundColor=default;verticalAlign=top;aspect=fixed;imageAspect=0;image=https://upload.wikimedia.org/wikipedia/commons/thumb/9/95/Vue.js_Logo_2.svg/555px-Vue.js_Logo_2.svg.png;" parent="1" vertex="1">
          <mxGeometry x="1220.56" y="520" width="43.88" height="38.06" as="geometry" />
        </mxCell>
        <mxCell id="pgruRRMdoTEAT8E5GWi7-3" value="" style="edgeStyle=orthogonalEdgeStyle;rounded=0;orthogonalLoop=1;jettySize=auto;html=1;exitX=0.5;exitY=0;exitDx=0;exitDy=0;entryX=0.5;entryY=1;entryDx=0;entryDy=0;fontSize=12;fontColor=#999999;startArrow=none;startFill=0;endArrow=none;endFill=1;startSize=4;endSize=4;strokeColor=#4284F3;strokeWidth=2;" parent="1" source="tw7i0WrtzU2Cmjyz0Lik-2" target="pgruRRMdoTEAT8E5GWi7-1" edge="1">
          <mxGeometry relative="1" as="geometry">
            <mxPoint x="1242.5" y="680" as="sourcePoint" />
            <mxPoint x="1215" y="450" as="targetPoint" />
          </mxGeometry>
        </mxCell>
        <mxCell id="pgruRRMdoTEAT8E5GWi7-4" value="Serves Vue app" style="text;html=1;align=center;verticalAlign=middle;resizable=0;points=[];autosize=1;strokeColor=none;fillColor=none;fontSize=12;fontColor=#999999;" parent="1" vertex="1">
          <mxGeometry x="1245" y="558.06" width="110" height="30" as="geometry" />
        </mxCell>
        <mxCell id="HrRFDO6_DDnTuoshuTs2-5" value="Create new forms" style="text;html=1;align=center;verticalAlign=middle;resizable=0;points=[];autosize=1;strokeColor=none;fillColor=none;fontSize=12;fontColor=#999999;" parent="1" vertex="1">
          <mxGeometry x="1286" y="385" width="120" height="30" as="geometry" />
        </mxCell>
        <mxCell id="HrRFDO6_DDnTuoshuTs2-6" value="Upload new forms" style="text;html=1;align=center;verticalAlign=middle;resizable=0;points=[];autosize=1;strokeColor=none;fillColor=none;fontSize=12;fontColor=#999999;" parent="1" vertex="1">
          <mxGeometry x="1080" y="385" width="120" height="30" as="geometry" />
        </mxCell>
      </root>
    </mxGraphModel>
  </diagram>
</mxfile>
